<svg xmlns="http://www.w3.org/2000/svg" xmlns:xlink="http://www.w3.org/1999/xlink" width="500" zoomAndPan="magnify" viewBox="0 0 375 374.999991" height="500" preserveAspectRatio="xMidYMid meet" version="1.0"><defs><g/><clipPath id="c2dad57578"><path d="M 99.050781 248.582031 L 198.375 248.582031 L 198.375 256.601562 L 99.050781 256.601562 Z M 99.050781 248.582031 " clip-rule="nonzero"/></clipPath><clipPath id="246a2e6ca7"><path d="M 231 178 L 304 178 L 304 299 L 231 299 Z M 231 178 " clip-rule="nonzero"/></clipPath><clipPath id="8d3d659124"><path d="M 231.226562 190.914062 L 267.28125 178.683594 L 303.734375 286.148438 L 267.679688 298.378906 Z M 231.226562 190.914062 " clip-rule="nonzero"/></clipPath><clipPath id="1d358ac6fc"><path d="M 231.226562 190.914062 L 267.28125 178.683594 L 303.707031 286.0625 L 267.648438 298.292969 Z M 231.226562 190.914062 " clip-rule="nonzero"/></clipPath><clipPath id="90b348a5ba"><path d="M 192 198 L 218 198 L 218 257 L 192 257 Z M 192 198 " clip-rule="nonzero"/></clipPath><clipPath id="909daacb04"><path d="M 211.140625 198.152344 L 217.503906 200.308594 L 198.441406 256.613281 L 192.078125 254.457031 Z M 211.140625 198.152344 " clip-rule="nonzero"/></clipPath><clipPath id="2fe183761f"><path d="M 211.140625 198.152344 L 217.503906 200.308594 L 198.445312 256.601562 L 192.082031 254.445312 Z M 211.140625 198.152344 " clip-rule="nonzero"/></clipPath><clipPath id="edc8b489d6"><path d="M 128 250 L 205 250 L 205 336 L 128 336 Z M 128 250 " clip-rule="nonzero"/></clipPath><clipPath id="ffd3d7fa54"><path d="M 128.558594 268.527344 L 182.023438 250.390625 L 204.835938 317.644531 L 151.367188 335.78125 Z M 128.558594 268.527344 " clip-rule="nonzero"/></clipPath><clipPath id="6183b6a29a"><path d="M 128.558594 268.527344 L 182.023438 250.390625 L 204.832031 317.636719 L 151.367188 335.773438 Z M 128.558594 268.527344 " clip-rule="nonzero"/></clipPath><clipPath id="34af53089a"><path d="M 200 214 L 281 214 L 281 341 L 200 341 Z M 200 214 " clip-rule="nonzero"/></clipPath><clipPath id="1dd8b09e94"><path d="M 200.828125 228.074219 L 241.898438 214.144531 L 280.101562 326.773438 L 239.03125 340.703125 Z M 200.828125 228.074219 " clip-rule="nonzero"/></clipPath><clipPath id="3b02a77a50"><path d="M 200.828125 228.074219 L 241.898438 214.144531 L 280.078125 326.703125 L 239.007812 340.632812 Z M 200.828125 228.074219 " clip-rule="nonzero"/></clipPath></defs><g fill="#000000" fill-opacity="1"><g transform="translate(136.177349, 309.653189)"><g><path d="M 204.203125 0 L 175.65625 0 L 154.703125 -62.21875 L 58.03125 -62.21875 L 36.921875 0 L 9 0 L 88.140625 -226.859375 L 125.0625 -226.859375 Z M 104.421875 -199.390625 L 65.484375 -84.5625 L 147.09375 -84.5625 L 108.3125 -199.390625 Z M 104.421875 -199.390625 "/></g></g></g><g fill="#000000" fill-opacity="1"><g transform="translate(25.613184, 309.653189)"><g><path d="M 204.203125 0 L 175.65625 0 L 154.703125 -62.21875 L 58.03125 -62.21875 L 36.921875 0 L 9 0 L 88.140625 -226.859375 L 125.0625 -226.859375 Z M 104.421875 -199.390625 L 65.484375 -84.5625 L 147.09375 -84.5625 L 108.3125 -199.390625 Z M 104.421875 -199.390625 "/></g></g></g><g clip-path="url(#c2dad57578)"><path fill="#ffffff" d="M 99.050781 248.582031 L 198.375 248.582031 L 198.375 256.601562 L 99.050781 256.601562 Z M 99.050781 248.582031 " fill-opacity="1" fill-rule="nonzero"/></g><g clip-path="url(#246a2e6ca7)"><g clip-path="url(#8d3d659124)"><g clip-path="url(#1d358ac6fc)"><path fill="#ffffff" d="M 231.226562 190.914062 L 267.28125 178.683594 L 303.6875 286.007812 L 267.628906 298.238281 Z M 231.226562 190.914062 " fill-opacity="1" fill-rule="nonzero"/></g></g></g><g clip-path="url(#90b348a5ba)"><g clip-path="url(#909daacb04)"><g clip-path="url(#2fe183761f)"><path fill="#ffffff" d="M 211.140625 198.152344 L 217.503906 200.308594 L 198.441406 256.613281 L 192.078125 254.457031 Z M 211.140625 198.152344 " fill-opacity="1" fill-rule="nonzero"/></g></g></g><g clip-path="url(#edc8b489d6)"><g clip-path="url(#ffd3d7fa54)"><g clip-path="url(#6183b6a29a)"><path fill="#ffffff" d="M 128.558594 268.527344 L 182.023438 250.390625 L 204.835938 317.644531 L 151.367188 335.78125 Z M 128.558594 268.527344 " fill-opacity="1" fill-rule="nonzero"/></g></g></g><g clip-path="url(#34af53089a)"><g clip-path="url(#1dd8b09e94)"><g clip-path="url(#3b02a77a50)"><path fill="#ffffff" d="M 200.828125 228.074219 L 241.898438 214.144531 L 280.101562 326.773438 L 239.03125 340.703125 Z M 200.828125 228.074219 " fill-opacity="1" fill-rule="nonzero"/></g></g></g></svg>