<?xml version="1.0" encoding="UTF-8" standalone="no"?>
<svg
   xmlns:dc="http://purl.org/dc/elements/1.1/"
   xmlns:cc="http://creativecommons.org/ns#"
   xmlns:rdf="http://www.w3.org/1999/02/22-rdf-syntax-ns#"
   xmlns:svg="http://www.w3.org/2000/svg"
   xmlns="http://www.w3.org/2000/svg"
   xmlns:sodipodi="http://sodipodi.sourceforge.net/DTD/sodipodi-0.dtd"
   xmlns:inkscape="http://www.inkscape.org/namespaces/inkscape"
   width="32.0px"
   height="32.0px"
   viewBox="0 0 32.0 32.0"
   version="1.1"
   id="SVGRoot"
   sodipodi:docname="logo.svg"
   inkscape:version="1.0.2-2 (e86c870879, 2021-01-15)"
   inkscape:export-filename="C:\Users\adam1\Documents\GitHub\Raw images\Site01\img\nav\logo-128-filled.png"
   inkscape:export-xdpi="384"
   inkscape:export-ydpi="384">
  <defs
     id="defs1402" />
  <sodipodi:namedview
     id="base"
     pagecolor="#ffffff"
     bordercolor="#666666"
     borderopacity="1.0"
     inkscape:pageopacity="0.0"
     inkscape:pageshadow="2"
     inkscape:zoom="15.599847"
     inkscape:cx="15.304488"
     inkscape:cy="11.82161"
     inkscape:document-units="px"
     inkscape:current-layer="layer1"
     inkscape:document-rotation="0"
     showgrid="true"
     inkscape:window-width="1346"
     inkscape:window-height="1041"
     inkscape:window-x="168"
     inkscape:window-y="0"
     inkscape:window-maximized="0"
     inkscape:snap-global="true"
     inkscape:snap-bbox="true"
     inkscape:snap-text-baseline="false"
     showguides="true"
     inkscape:guide-bbox="true">
    <inkscape:grid
       type="xygrid"
       id="grid1972" />
    <sodipodi:guide
       position="16,32"
       orientation="1,0"
       id="guide2012" />
  </sodipodi:namedview>
  <metadata
     id="metadata1405">
    <rdf:RDF>
      <cc:Work
         rdf:about="">
        <dc:format>image/svg+xml</dc:format>
        <dc:type
           rdf:resource="http://purl.org/dc/dcmitype/StillImage" />
        <dc:title></dc:title>
      </cc:Work>
    </rdf:RDF>
  </metadata>
  <g
     inkscape:label="Layer 1"
     inkscape:groupmode="layer"
     id="layer1">
    <path
       id="path901"
       style="display:inline;opacity:0.999;fill:#800080;stroke-width:1.4659"
       d="M 15.976562,0.06835937 A 14.659016,14.659016 0 0 0 1.3808594,14.761719 14.659016,14.659016 0 0 0 6.15625,25.550781 l -2.1269531,6.53711 h 3.71875 l 1.3632812,-4.441407 a 14.659016,14.659016 0 0 0 6.9453129,1.740235 14.659016,14.659016 0 0 0 7.240234,-1.923828 l 1.507813,4.625 h 3.988281 l -2.416016,-6.96875 a 14.659016,14.659016 0 0 0 4.322266,-10.392579 v -0.06836 A 14.659016,14.659016 0 0 0 15.988281,0.06835937 a 14.659016,14.659016 0 0 0 -0.01172,0 z M 13.390625,3.3027344 7.1777344,22.408203 A 11.727342,11.727342 0 0 1 4.3125,14.755859 11.727342,11.727342 0 0 1 13.390625,3.3027344 Z m 5.4375,0.033203 a 11.727342,11.727342 0 0 1 8.939453,11.3359376 v 0.05469 a 11.727342,11.727342 0 0 1 -2.488281,7.222657 z M 15.996094,4.126953 c 0.409115,1.6907962 1.034656,3.849967 1.876953,6.478516 l 2.761719,8.652343 h -8.970704 l 2.90625,-9.164062 C 15.183986,8.1187864 15.659175,6.1303335 15.996094,4.126953 Z M 10.654297,22.625 H 21.71875 l 0.644531,1.978516 a 11.727342,11.727342 0 0 1 -6.308593,1.851562 11.727342,11.727342 0 0 1 -6.0605474,-1.68164 z" />
  </g>
</svg>
