<?xml version="1.0" encoding="UTF-8" standalone="no"?>
<svg
   xmlns:dc="http://purl.org/dc/elements/1.1/"
   xmlns:cc="http://creativecommons.org/ns#"
   xmlns:rdf="http://www.w3.org/1999/02/22-rdf-syntax-ns#"
   xmlns:svg="http://www.w3.org/2000/svg"
   xmlns="http://www.w3.org/2000/svg"
   xmlns:sodipodi="http://sodipodi.sourceforge.net/DTD/sodipodi-0.dtd"
   xmlns:inkscape="http://www.inkscape.org/namespaces/inkscape"
   version="1.1"
   id="Layer_2"
   x="0px"
   y="0px"
   width="256px"
   height="160px"
   viewBox="0 0 256 160"
   enable-background="new 0 0 256 160"
   xml:space="preserve"
   sodipodi:docname="mens-den-logo.svg"
   inkscape:version="1.0.2-2 (e86c870879, 2021-01-15)"><metadata
   id="metadata63"><rdf:RDF><cc:Work
       rdf:about=""><dc:format>image/svg+xml</dc:format><dc:type
         rdf:resource="http://purl.org/dc/dcmitype/StillImage" /><dc:title></dc:title></cc:Work></rdf:RDF></metadata><defs
   id="defs61" /><sodipodi:namedview
   pagecolor="#ffffff"
   bordercolor="#666666"
   borderopacity="1"
   objecttolerance="10"
   gridtolerance="10"
   guidetolerance="10"
   inkscape:pageopacity="0"
   inkscape:pageshadow="2"
   inkscape:window-width="1858"
   inkscape:window-height="1057"
   id="namedview59"
   showgrid="false"
   inkscape:zoom="4.2187328"
   inkscape:cx="128"
   inkscape:cy="80"
   inkscape:window-x="-8"
   inkscape:window-y="-8"
   inkscape:window-maximized="1"
   inkscape:current-layer="Layer_2" />
<radialGradient
   id="Bottom-ackground_1_"
   cx="186.0156"
   cy="18.5449"
   r="166.3347"
   gradientTransform="matrix(1.0041 0 0 0.9643 0.1274 4.6869)"
   gradientUnits="userSpaceOnUse">
	<stop
   offset="0"
   style="stop-color:#FFFFFF"
   id="stop2" />
	<stop
   offset="1"
   style="stop-color:#000000"
   id="stop4" />
</radialGradient>
<rect
   id="Bottom-ackground"
   x="5"
   y="128"
   fill="url(#Bottom-ackground_1_)"
   width="246"
   height="27" />
<g
   id="_x2D__x5F_text">
	<path
   fill="#ffffff"
   stroke="#ffffff"
   stroke-miterlimit="10"
   d="m 129.73,142.865 v 0.91 h -3.459 v -0.91 z"
   id="path8" />
</g>
<g
   id="MENS-text">
	<g
   id="g19">
		<path
   fill="#ffffff"
   d="m 80.878,142.949 c -0.105,-1.975 -0.231,-4.346 -0.21,-6.109 h -0.063 c -0.483,1.658 -1.071,3.422 -1.785,5.375 l -2.499,6.865 h -1.386 l -2.289,-6.74 c -0.672,-1.994 -1.239,-3.82 -1.638,-5.5 h -0.042 c -0.042,1.764 -0.147,4.135 -0.273,6.256 l -0.378,6.068 h -1.743 l 0.987,-14.152 h 2.331 l 2.415,6.846 c 0.588,1.742 1.071,3.297 1.428,4.766 h 0.063 c 0.357,-1.428 0.861,-2.98 1.491,-4.766 l 2.52,-6.846 h 2.331 l 0.882,14.152 h -1.785 z"
   id="path11" />
		<path
   fill="#ffffff"
   d="m 94.213,142.529 h -5.501 v 5.102 h 6.131 v 1.533 h -7.958 v -14.152 h 7.643 v 1.533 h -5.816 v 4.473 h 5.501 z"
   id="path13" />
		<path
   fill="#ffffff"
   d="m 98.268,149.164 v -14.152 h 1.995 l 4.535,7.16 c 1.05,1.658 1.869,3.15 2.541,4.598 l 0.042,-0.02 c -0.168,-1.891 -0.21,-3.611 -0.21,-5.816 v -5.922 h 1.722 v 14.152 h -1.848 l -4.493,-7.182 c -0.987,-1.574 -1.932,-3.191 -2.646,-4.723 l -0.063,0.02 c 0.105,1.785 0.147,3.486 0.147,5.838 v 6.047 z"
   id="path15" />
		<path
   fill="#ffffff"
   d="m 112.883,146.938 c 0.819,0.504 2.016,0.924 3.275,0.924 1.869,0 2.96,-0.986 2.96,-2.414 0,-1.322 -0.756,-2.078 -2.667,-2.813 -2.31,-0.82 -3.737,-2.016 -3.737,-4.012 0,-2.203 1.827,-3.842 4.577,-3.842 1.449,0 2.499,0.336 3.128,0.693 l -0.504,1.49 c -0.462,-0.252 -1.407,-0.672 -2.688,-0.672 -1.932,0 -2.667,1.154 -2.667,2.121 0,1.322 0.861,1.973 2.813,2.729 2.394,0.924 3.611,2.08 3.611,4.158 0,2.184 -1.617,4.072 -4.955,4.072 -1.365,0 -2.855,-0.398 -3.611,-0.902 z"
   id="path17" />
	</g>
	<g
   id="g29">
		<path
   fill="none"
   stroke="#ffffff"
   stroke-miterlimit="10"
   d="m 80.878,142.949 c -0.105,-1.975 -0.231,-4.346 -0.21,-6.109 h -0.063 c -0.483,1.658 -1.071,3.422 -1.785,5.375 l -2.499,6.865 h -1.386 l -2.289,-6.74 c -0.672,-1.994 -1.239,-3.82 -1.638,-5.5 h -0.042 c -0.042,1.764 -0.147,4.135 -0.273,6.256 l -0.378,6.068 h -1.743 l 0.987,-14.152 h 2.331 l 2.415,6.846 c 0.588,1.742 1.071,3.297 1.428,4.766 h 0.063 c 0.357,-1.428 0.861,-2.98 1.491,-4.766 l 2.52,-6.846 h 2.331 l 0.882,14.152 h -1.785 z"
   id="path21" />
		<path
   fill="none"
   stroke="#ffffff"
   stroke-miterlimit="10"
   d="m 94.213,142.529 h -5.501 v 5.102 h 6.131 v 1.533 h -7.958 v -14.152 h 7.643 v 1.533 h -5.816 v 4.473 h 5.501 z"
   id="path23" />
		<path
   fill="none"
   stroke="#ffffff"
   stroke-miterlimit="10"
   d="m 98.268,149.164 v -14.152 h 1.995 l 4.535,7.16 c 1.05,1.658 1.869,3.15 2.541,4.598 l 0.042,-0.02 c -0.168,-1.891 -0.21,-3.611 -0.21,-5.816 v -5.922 h 1.722 v 14.152 h -1.848 l -4.493,-7.182 c -0.987,-1.574 -1.932,-3.191 -2.646,-4.723 l -0.063,0.02 c 0.105,1.785 0.147,3.486 0.147,5.838 v 6.047 z"
   id="path25" />
		<path
   fill="none"
   stroke="#ffffff"
   stroke-miterlimit="10"
   d="m 112.883,146.938 c 0.819,0.504 2.016,0.924 3.275,0.924 1.869,0 2.96,-0.986 2.96,-2.414 0,-1.322 -0.756,-2.078 -2.667,-2.813 -2.31,-0.82 -3.737,-2.016 -3.737,-4.012 0,-2.203 1.827,-3.842 4.577,-3.842 1.449,0 2.499,0.336 3.128,0.693 l -0.504,1.49 c -0.462,-0.252 -1.407,-0.672 -2.688,-0.672 -1.932,0 -2.667,1.154 -2.667,2.121 0,1.322 0.861,1.973 2.813,2.729 2.394,0.924 3.611,2.08 3.611,4.158 0,2.184 -1.617,4.072 -4.955,4.072 -1.365,0 -2.855,-0.398 -3.611,-0.902 z"
   id="path27" />
	</g>
</g>
<g
   id="DEN-text">
	<g
   id="g38">
		<path
   fill="#ffffff"
   d="m 134.651,135.201 c 1.113,-0.168 2.436,-0.293 3.885,-0.293 2.624,0 4.492,0.607 5.731,1.764 1.26,1.154 1.995,2.791 1.995,5.08 0,2.311 -0.715,4.199 -2.037,5.502 -1.322,1.322 -3.506,2.035 -6.257,2.035 -1.302,0 -2.394,-0.063 -3.317,-0.168 v -13.92 z m 1.827,12.514 c 0.463,0.084 1.135,0.105 1.848,0.105 3.906,0 6.026,-2.184 6.026,-6.006 0.021,-3.338 -1.868,-5.459 -5.731,-5.459 -0.945,0 -1.659,0.084 -2.143,0.189 v 11.171 z"
   id="path32" />
		<path
   fill="#ffffff"
   d="m 157.015,142.529 h -5.5 v 5.102 h 6.131 v 1.533 h -7.958 v -14.152 h 7.643 v 1.533 h -5.815 v 4.473 h 5.5 v 1.511 z"
   id="path34" />
		<path
   fill="#ffffff"
   d="m 161.068,149.164 v -14.152 h 1.995 l 4.535,7.16 c 1.049,1.658 1.868,3.15 2.54,4.598 l 0.042,-0.02 c -0.168,-1.891 -0.21,-3.611 -0.21,-5.816 v -5.922 h 1.722 v 14.152 h -1.848 l -4.493,-7.182 c -0.987,-1.574 -1.932,-3.191 -2.646,-4.723 l -0.063,0.02 c 0.104,1.785 0.146,3.486 0.146,5.838 v 6.047 z"
   id="path36" />
	</g>
	<g
   id="g46">
		<path
   fill="none"
   stroke="#ffffff"
   stroke-miterlimit="10"
   d="m 134.651,135.201 c 1.113,-0.168 2.436,-0.293 3.885,-0.293 2.624,0 4.492,0.607 5.731,1.764 1.26,1.154 1.995,2.791 1.995,5.08 0,2.311 -0.715,4.199 -2.037,5.502 -1.322,1.322 -3.506,2.035 -6.257,2.035 -1.302,0 -2.394,-0.063 -3.317,-0.168 z m 1.827,12.514 c 0.463,0.084 1.135,0.105 1.848,0.105 3.906,0 6.026,-2.184 6.026,-6.006 0.021,-3.338 -1.868,-5.459 -5.731,-5.459 -0.945,0 -1.659,0.084 -2.143,0.189 z"
   id="path40" />
		<path
   fill="none"
   stroke="#ffffff"
   stroke-miterlimit="10"
   d="m 157.015,142.529 h -5.5 v 5.102 h 6.131 v 1.533 h -7.958 v -14.152 h 7.643 v 1.533 h -5.815 v 4.473 h 5.5 v 1.511 z"
   id="path42" />
		<path
   fill="none"
   stroke="#ffffff"
   stroke-miterlimit="10"
   d="m 161.068,149.164 v -14.152 h 1.995 l 4.535,7.16 c 1.049,1.658 1.868,3.15 2.54,4.598 l 0.042,-0.02 c -0.168,-1.891 -0.21,-3.611 -0.21,-5.816 v -5.922 h 1.722 v 14.152 h -1.848 l -4.493,-7.182 c -0.987,-1.574 -1.932,-3.191 -2.646,-4.723 l -0.063,0.02 c 0.104,1.785 0.146,3.486 0.146,5.838 v 6.047 z"
   id="path44" />
	</g>
</g>
<rect
   id="D-background"
   x="128"
   y="5"
   width="123"
   height="123" />
<rect
   id="M-background"
   x="5"
   y="5"
   fill="#E33536"
   width="123"
   height="123" />
<g
   id="D-text">
	<path
   fill="#ffffff"
   stroke="#ffffff"
   stroke-width="5"
   stroke-miterlimit="10"
   d="m 138.603,121.086 v -4.73 c 11.685,0 12.645,-0.887 12.645,-11.53 v -76.87 c 0,-10.644 -0.96,-11.531 -12.645,-11.531 v -4.73 h 43.058 c 17.767,0 29.131,3.4 38.415,12.27 10.404,10.2 14.565,24.54 14.565,41.244 0,42.574 -23.689,55.879 -56.343,55.879 H 138.603 Z M 169.655,17.607 c -4.162,0 -4.963,1.035 -4.963,6.208 v 83.375 c 0,6.948 0.801,7.982 5.442,7.982 h 7.684 c 25.29,0 42.897,-13.305 42.897,-48.191 0,-16.853 -2.882,-28.827 -10.404,-38.14 -6.883,-8.278 -16.807,-11.235 -29.292,-11.235 h -11.364 z"
   id="path51" />
</g>
<g
   id="M-text">
	<path
   fill="#ffffff"
   stroke="#ffffff"
   stroke-width="5"
   stroke-miterlimit="10"
   d="M 98.764,11.694 H 118.9 v 4.73 c -9.043,0 -9.646,0.887 -9.646,11.531 v 76.87 c 0,10.644 0.723,11.53 9.646,11.53 v 4.73 H 90.203 v -4.73 c 8.561,0 9.043,-0.887 9.043,-11.53 V 27.511 H 99.005 L 68.379,121.825 H 64.641 L 32.81,27.216 h -0.241 v 77.609 c 0,10.644 0.482,11.53 8.802,11.53 v 4.73 H 17.858 v -4.73 c 8.802,0 9.405,-0.887 9.405,-11.53 V 27.511 c 0,-10.348 -0.603,-11.087 -9.405,-11.087 v -4.73 H 37.03 l 31.35,92.096 h 0.362 z"
   id="path54" />
</g>
<polygon
   id="Border"
   fill="#FFFFFF"
   points="256,0 251,5 5,5 5,155 251,155 251,5 256,0 256,160 0,160 0,0 " />
</svg>
