<?xml version="1.0" encoding="UTF-8" standalone="no"?>
<svg
   xmlns:dc="http://purl.org/dc/elements/1.1/"
   xmlns:cc="http://creativecommons.org/ns#"
   xmlns:rdf="http://www.w3.org/1999/02/22-rdf-syntax-ns#"
   xmlns:svg="http://www.w3.org/2000/svg"
   xmlns="http://www.w3.org/2000/svg"
   xmlns:sodipodi="http://sodipodi.sourceforge.net/DTD/sodipodi-0.dtd"
   xmlns:inkscape="http://www.inkscape.org/namespaces/inkscape"
   version="1.1"
   id="svg857"
   width="554.47809"
   height="228.12799"
   viewBox="0 0 554.47809 228.12799"
   sodipodi:docname="hubofhope.svg"
   inkscape:version="1.0.2-2 (e86c870879, 2021-01-15)">
  <metadata
     id="metadata863">
    <rdf:RDF>
      <cc:Work
         rdf:about="">
        <dc:format>image/svg+xml</dc:format>
        <dc:type
           rdf:resource="http://purl.org/dc/dcmitype/StillImage" />
        <dc:title></dc:title>
      </cc:Work>
    </rdf:RDF>
  </metadata>
  <defs
     id="defs861" />
  <sodipodi:namedview
     pagecolor="#ffffff"
     bordercolor="#666666"
     borderopacity="1"
     objecttolerance="10"
     gridtolerance="10"
     guidetolerance="10"
     inkscape:pageopacity="0"
     inkscape:pageshadow="2"
     inkscape:window-width="1858"
     inkscape:window-height="1057"
     id="namedview859"
     showgrid="false"
     inkscape:zoom="1.3784697"
     inkscape:cx="288.64878"
     inkscape:cy="241.94879"
     inkscape:window-x="-8"
     inkscape:window-y="-8"
     inkscape:window-maximized="1"
     inkscape:current-layer="g865"
     inkscape:document-rotation="0"
     fit-margin-bottom="10"
     fit-margin-top="10"
     fit-margin-left="10"
     fit-margin-right="10"
     inkscape:snap-bbox="true"
     inkscape:snap-page="true" />
  <g
     inkscape:groupmode="layer"
     inkscape:label="logo"
     id="g865"
     style="display:inline"
     transform="translate(-73.508864,-169.072)">
    <rect
       style="fill:#ffffff;stroke:#ffffff;stroke-width:0;stroke-miterlimit:10"
       id="rect833"
       width="554.47809"
       height="228.12798"
       x="73.508865"
       y="169.07201" />
    <g
       id="g1430"
       style="display:inline">
      <path
         style="fill:#333333;fill-opacity:1;stroke-width:0.64"
         d="m 519.83396,355.67999 0.16603,-31.52 h 8.96 c 5.65097,0 9.8425,-0.1882 11.9479,-0.16148 10.4627,0.0149 19.43227,1.66175 24.03695,11.20957 2.21639,6.55554 2.56027,13.95111 -0.0927,19.62032 -9.1296,12.75889 -15.55499,11.74089 -27.60981,10.95194 -1.24273,-0.0694 -2.03279,0.0407 -3.73385,0.032 -0.21367,0.55679 -0.38848,5.59679 -0.38848,11.2 v 10.18765 h -6.72603 -6.72603 z m 27.66711,-0.66028 c 3.20051,-1.31018 5.76983,-4.91457 6.15588,-8.35125 0.43896,-3.90771 -1.81163,-8.1638 -4.71837,-10.81215 -1.5415,-1.40447 -3.85909,-2.07172 -5.94142,-1.95918 -3.47686,0.18791 -8.95066,2.23954 -9.51001,4.32138 -0.19232,0.71581 -0.35362,3.92068 -0.35842,7.12193 -0.008,5.2464 0.14456,5.99886 1.54552,7.62926 3.14897,3.66468 8.81971,3.69038 12.82682,2.05001 z M 299.07219,367.0558 c -9.94315,-2.87544 -17.52202,-10.35943 -17.47219,-22.09581 -0.3127,-7.6482 8.87918,-22.16114 23.70046,-22.4 4.16816,0 9.49677,1.44768 12.64592,3.43565 6.36561,4.34534 10.2243,11.52425 10.3433,19.28435 -0.58157,7.90356 -4.44139,15.03373 -10.91486,19.24326 -7.32161,4.2973 -10.74489,3.57851 -18.30263,2.53255 z m 16.02114,-21.50173 c 0,-5.00691 -2.35432,-8.52277 -6.90374,-10.3098 -5.62889,-2.31531 -11.367,2.45449 -12.94918,7.15149 -1.80525,5.26791 1.40053,10.56465 5.55959,12.83707 7.29526,3.38151 14.1912,-2.88881 14.29333,-9.67876 z m 153.766,13.16592 c -7.3548,-11.54724 -5.96006,-19.88468 -0.37934,-26.90718 6.5192,-8.20343 21.23976,-12.48303 30.72,-6.66692 6.64653,3.93576 11.06797,12.41836 11.48969,20.1341 0.32085,5.87015 -2.77566,11.93538 -7.0198,16.17952 -9.99368,8.64166 -25.88854,9.69247 -34.81055,-2.73952 z m 22.10251,-3.14758 c 9.21608,-5.92862 8.3611,-16.87565 -0.55859,-20.43692 -5.69049,-2.10725 -11.24571,2.74559 -12.79583,7.36289 -1.76256,5.22136 1.48702,10.49174 5.59257,12.73494 2.71967,1.44553 4.90465,1.54112 7.76185,0.33957 z m -340.25403,-0.20458 c -0.47069,-1.73176 -0.9419,-4.52332 -0.8,-16.57832 L 150.08,324.15999 h 6.4 6.4 c -0.52316,8.17362 -1.95726,20.47473 1.20659,26.4746 1.42208,2.41566 4.55466,4.54801 7.06235,4.5654 3.19474,0 5.06439,-0.629 7.41106,-2.49327 1.59683,-1.26858 1.60063,-1.2981 1.92,-14.90891 l 0.32,-13.63782 5.98446,-0.18487 c 3.29145,-0.10168 6.31545,0.0896 6.72,0.42503 0.53299,0.44195 0.68669,6.26469 0.55817,21.14487 l -0.17737,20.53497 h -6.66486 c -3.75288,0 -6.83768,-0.27963 -7.0604,-0.64 -0.59278,-0.95914 -2.95456,-0.77091 -4.17399,0.33266 -9.86779,4.30093 -22.58245,-1.4385 -25.2782,-10.40482 z m 439.37218,11.43754 c -9.84986,-2.31534 -15.84978,-13.35423 -16,-21.58643 -0.43748,-13.92928 11.03543,-22.36677 21.87393,-22.78166 10.38266,-0.22875 18.80548,5.50881 21.04408,14.33504 1.06971,4.2176 1.3167,8.92649 0.51866,9.88808 -0.55623,0.67021 -3.71612,0.85959 -14.34269,0.85959 -7.49611,0 -14.08485,0.17481 -14.64163,0.38847 -2.34256,0.89893 -0.87042,4.53909 2.95694,7.31161 3.12993,2.26731 6.71033,2.51749 9.71517,0.67886 1.54416,-0.94486 3.50349,-1.27058 8.66217,-1.44 7.34133,-0.2411 8.06305,0.12582 6.11011,3.10637 -5.92332,9.18299 -15.19681,11.15328 -25.89674,9.24007 z m 14.33153,-26.69773 c 0.65629,-1.71024 0.44519,-2.56448 -1.05153,-4.25534 -1.80358,-2.03752 -5.02626,-3.69231 -7.19073,-3.69231 -1.76079,0 -4.27258,1.35606 -6.47251,3.49438 -1.67882,1.63181 -2.4869,4.59362 -1.37566,5.04212 0.43939,0.17735 4.15209,0.34518 8.25043,0.37297 6.23535,0.0423 7.51493,-0.1147 7.84,-0.96182 z M 204.8,335.39776 c 0,-17.22722 0.216,-31.42127 0.48,-31.54233 0.264,-0.12105 3.216,-0.0661 6.56,0.12223 l 6.08,0.34233 0.32,10.24 0.32,10.24 1.6,-0.12405 c 0.88,-0.0682 3.04,-0.45961 4.8,-0.86974 18.24728,-0.726 26.93967,7.7716 26.7128,21.66111 0.10154,8.44141 -3.93823,15.60051 -11.49153,19.58199 -2.97551,1.48893 -4.08402,1.67069 -10.18961,1.67069 -5.47668,0 -7.08564,-0.21246 -8.02127,-1.0592 -1.08906,-0.98558 -1.25172,-0.98558 -2.34079,0 -0.93515,0.84631 -2.54311,1.0592 -8,1.0592 H 204.8 Z m 26.87516,20.38329 c 4.63474,-1.99381 5.77986,-6.44892 6.40484,-10.50106 0.35824,-2.32267 -0.49539,-4.81999 -1.68704,-6.8456 -0.85857,-1.45942 -2.08319,-3.02725 -3.72062,-3.4584 -4.5736,-1.20428 -11.90552,-1.08392 -13.80195,3.28924 -0.84837,2.23139 -0.80395,12.85458 0.0605,14.46984 4.03127,3.73466 8.19423,4.98089 12.74427,3.04596 z m 111.1515,10.51227 C 342.592,366.05866 342.4,359.30765 342.4,351.29109 c 0,-10.95764 -0.19858,-14.70408 -0.8,-15.09333 -0.44,-0.28477 -2.816,-0.66177 -5.28,-0.83777 l -4.48,-0.32 v -5.44 -5.44 l 3.84,-0.16474 c 6.84339,-0.29358 6.46951,0.091 6.94358,-7.14298 0.40398,-6.1645 0.74541,-7.57236 2.6405,-10.88778 1.12384,-1.96616 5.28004,-5.80323 6.29153,-5.80844 0.42041,-0.002 1.62838,-0.48901 2.68438,-1.08186 2.71021,-1.52153 12.59658,-1.48022 15.57188,0.0651 1.58452,0.82295 2.01612,1.38369 1.68103,2.18398 -0.24795,0.59221 -0.63129,2.804 -0.85187,4.91511 l -0.40104,3.83837 -4.62679,-0.21521 c -5.26656,-0.24496 -7.05305,0.6645 -9.20977,4.68849 -1.21407,2.26519 -1.60252,7.03112 -0.6901,8.46695 0.32549,0.51219 2.88469,0.83933 7.5102,0.96 l 7.01646,0.18303 0.18492,5.6 0.18492,5.6 h -6.46699 c -3.55685,0 -7.02406,0.29813 -7.70492,0.66251 -1.16991,0.62612 -1.23793,1.48767 -1.23793,15.68 v 15.01749 h -5.97333 c -3.28533,0 -6.16533,-0.192 -6.4,-0.42667 z m 58.07719,-0.16 c -0.14512,-0.14666 -0.26386,-13.61066 -0.26386,-29.92 v -29.65333 h 7.04 7.04 v 11.82781 c 0,11.73417 0.0114,11.83061 1.44,12.1823 0.792,0.19498 6.48,0.27246 12.64,0.17219 l 11.2,-0.1823 0.32,-11.84 0.32,-11.84 h 7.04 c 5.23947,0 7.02363,0.20461 6.976,0.8 -0.0352,0.44 -0.1072,13.76 -0.16,29.6 l -0.096,28.8 h -6.72 c -3.696,0 -6.7747,-0.072 -6.84155,-0.16 -0.0669,-0.088 -0.28286,-5.2 -0.48,-11.36 l -0.35845,-11.2 h -12.48 -12.48 l -0.32,11.2 -0.32,11.2 -6.61614,0.32 c -3.63888,0.176 -6.73488,0.2 -6.88,0.0533 z m -317.386814,-0.0899 c 0.04324,-3.59549 -0.04927,-14.33294 0.01597,-29.29294 0.07865,-18.03426 -0.04013,-29.3228 -0.01652,-30.03752 5.883134,-0.006 8.5737,-0.20957 15.065609,-0.21946 L 98.56,318.05727 c -0.02047,10.71219 0.04036,10.72514 0.398237,12.02742 1.921903,0.12913 23.852643,1.02225 25.082283,0.24249 0.6352,-0.40282 0.86969,-3.33156 0.96,-11.9902 L 125.12,306.87999 h 7.04 c 5.23947,0 7.02363,0.20461 6.976,0.8 -0.0352,0.44 -0.1072,13.76 -0.16,29.6 l -0.096,28.8 h -6.72 c -3.696,0 -6.7747,-0.072 -6.84156,-0.16 -0.0669,-0.088 -0.28285,-5.2 -0.48,-11.36 l -0.35844,-11.2 -12.07707,-0.17441 c -8.24696,-0.11909 -12.35226,0.054 -12.944819,0.54577 -0.652858,0.54182 -0.911143,3.3587 -1.042938,11.3744 l -0.175174,10.65424 -6.205306,0.18276 c -5.428429,0.15988 -5.331388,0.0991 -8.517657,0.10067 z M 330.96163,274.56528 c -8.83477,-2.4693 -16.59638,-8.08892 -23.90949,-13.62687 -7.82576,-5.92617 -14.69948,-13.12345 -20.97214,-20.67432 -4.58573,-6.51808 -9.47995,-12.97197 -11.81102,-20.5085 -2.13035,-6.88759 -4.86513,-15.09955 -1.67284,-21.5638 3.30311,-6.68865 10.4028,-11.90069 18.76887,-12.18879 3.65607,-0.0905 10.40762,1.59305 15.40685,3.17492 3.81577,1.2074 7.04078,4.29424 11.01312,4.7825 1.86302,0.22899 3.80576,-0.2435 5.55457,-0.92537 7.70233,-3.00317 12.665,-11.91199 20.7662,-13.55986 6.01812,-1.22415 12.65432,0.47691 18.13584,3.24625 5.2383,2.64646 7.79668,9.01049 12.78008,12.11036 0.86495,0.53803 1.84777,1.03008 2.86595,1.06058 7.59654,0.22753 14.28065,-5.64488 21.81791,-6.61901 8.79637,-1.13686 21.50066,0.32769 26.70859,8.02834 4.3743,6.46801 1.43824,16.62208 -2.09413,23.33113 -3.01042,6.98693 -7.38123,13.76549 -11.15408,18.72715 -8.76511,11.86406 -18.65253,19.64143 -29.78012,27.17666 -5.66872,3.83867 -11.79395,7.50796 -18.48705,8.94744 -11.06354,2.37943 -23.0383,2.12739 -33.93711,-0.91881 z m 25.34884,-10.04522 c 1.34753,-1.34579 1.97126,-3.4189 2.08317,-5.32007 0.22674,-3.85205 -1.21169,-7.74352 -2.92705,-11.2 -5.93736,-11.9639 -15.16082,-22.2128 -24.74659,-31.51335 -4.13797,-4.01485 -8.81673,-7.58394 -13.92,-10.26692 -7.64565,-4.0196 -16.03955,-10.2309 -24.4939,-8.45973 -4.26941,0.89443 -8.51496,4.65642 -9.61445,8.87767 -1.43686,5.51651 2.4578,11.32029 5.30835,16.25697 6.69947,11.60236 15.92539,22.1556 26.8542,29.90536 10.18673,7.22354 22.09864,14.25898 34.5858,14.40011 2.45807,0.0278 5.13112,-0.94293 6.87047,-2.68004 z m 38.99957,-21.57189 c 6.9697,-4.84648 12.90595,-14.11621 15.88238,-19.90818 1.95796,-3.82623 4.3869,-8.04994 4.79926,-11.72949 0.39584,-3.97156 0.91557,-8.95908 -1.85857,-11.82859 -1.89897,-1.96425 -5.33227,-1.83114 -8.04935,-1.54508 -10.76005,1.13285 -20.79096,6.79005 -29.90342,12.62316 -7.24192,4.63573 -13.10859,10.85076 -19.06035,17.38165 -0.34843,0.38233 0.80779,1.5948 1.2707,2.35844 4.23199,6.98119 8.1354,15.57736 13.74243,20.2723 7.36908,6.17036 16.49967,-2.98109 23.17692,-7.62421 z m -40.62149,-29.35632 c 4.01344,-1.50795 8.65826,-4.23032 9.76382,-8.3727 0.74068,-2.77523 -1.17686,-5.80723 -2.87638,-8.12286 -1.60439,-2.18601 -3.92413,-4.04627 -6.50123,-4.88963 -4.21845,-1.38049 -9.22404,-1.5585 -13.31476,0.16403 -4.30078,1.81099 -10.05092,5.2288 -9.90532,9.89305 0.17974,5.75799 7.5668,9.41759 12.96599,11.42647 3.08297,1.14708 6.7886,1.0586 9.86788,-0.0984 z"
         id="path1432"
         sodipodi:nodetypes="ccscccccsccccaaaascsacccccccccccccacacccccccccscccccsscssscsscccccsssssssccsssssssssccccscccsssscssaaacccssssscccssscsssscsssscccssscssssscccssscccssscssscccccssscsccscsscssscssscssscscaacaacaaaaaaasaccaaaaaaaaaaaaaaaccaaascsaaaaaaaaaa"
         inkscape:original-d="m 519.83396,355.67999 0.16603,-31.52 h 8.96 c 5.65097,0 9.8425,-0.1882 11.9479,-0.16148 10.4627,0.0149 19.43227,1.66175 24.03695,11.20957 2.21639,6.55554 2.56027,13.95111 -0.0927,19.62032 -9.1296,12.75889 -15.55499,11.74089 -27.60981,10.95194 -1.24273,-0.0694 -2.03279,0.0407 -3.73385,0.032 -0.21367,0.55679 -0.38848,5.59679 -0.38848,11.2 v 10.18765 h -6.72603 -6.72603 z m 27.66711,-0.66028 c 3.20051,-1.31018 5.76983,-4.91457 6.15588,-8.35125 0.43896,-3.90771 -1.81163,-8.1638 -4.71837,-10.81215 -1.5415,-1.40447 -3.85909,-2.07172 -5.94142,-1.95918 -3.47686,0.18791 -8.95066,2.23954 -9.51001,4.32138 -0.19232,0.71581 -0.35362,3.92068 -0.35842,7.12193 -0.008,5.2464 0.14456,5.99886 1.54552,7.62926 3.14897,3.66468 8.81971,3.69038 12.82682,2.05001 z M 299.07219,367.0558 c -9.94315,-2.87544 -17.52202,-10.35943 -17.47219,-22.09581 -0.3127,-7.6482 8.87918,-22.16114 23.70046,-22.4 4.16816,0 9.49677,1.44768 12.64592,3.43565 6.36561,4.34534 10.2243,11.52425 10.3433,19.28435 -0.58157,7.90356 -4.44139,15.03373 -10.91486,19.24326 -7.32161,4.2973 -10.74489,3.57851 -18.30263,2.53255 z m 16.02114,-21.50173 c 0,-5.00691 -2.35432,-8.52277 -6.90374,-10.3098 -5.62889,-2.31531 -11.367,2.45449 -12.94918,7.15149 -1.80525,5.26791 1.40053,10.56465 5.55959,12.83707 7.29526,3.38151 14.1912,-2.88881 14.29333,-9.67876 z m 153.766,13.16592 c -7.3548,-11.54724 -5.96006,-19.88468 -0.37934,-26.90718 6.5192,-8.20343 21.23976,-12.48303 30.72,-6.66692 6.64653,3.93576 11.06797,12.41836 11.48969,20.1341 0.32085,5.87015 -2.77566,11.93538 -7.0198,16.17952 -9.99368,8.64166 -25.88854,9.69247 -34.81055,-2.73952 z m 22.10251,-3.14758 c 9.21608,-5.92862 8.3611,-16.87565 -0.55859,-20.43692 -5.69049,-2.10725 -11.24571,2.74559 -12.79583,7.36289 -1.76256,5.22136 1.48702,10.49174 5.59257,12.73494 2.71967,1.44553 4.90465,1.54112 7.76185,0.33957 z m -340.25403,-0.20458 c -0.47069,-1.73176 -0.9419,-4.52332 -0.8,-16.57832 L 150.08,324.15999 h 6.4 6.4 c -0.52316,8.17362 -1.95726,20.47473 1.20659,26.4746 1.42208,2.41566 4.55466,4.54801 7.06235,4.5654 3.19474,0 5.06439,-0.629 7.41106,-2.49327 1.59683,-1.26858 1.60063,-1.2981 1.92,-14.90891 l 0.32,-13.63782 5.98446,-0.18487 c 3.29145,-0.10168 6.31545,0.0896 6.72,0.42503 0.53299,0.44195 0.68669,6.26469 0.55817,21.14487 l -0.17737,20.53497 h -6.66486 c -3.75288,0 -6.83768,-0.27963 -7.0604,-0.64 -0.59278,-0.95914 -2.95456,-0.77091 -4.17399,0.33266 -9.86779,4.30093 -22.58245,-1.4385 -25.2782,-10.40482 z m 439.37218,11.43754 c -9.84986,-2.31534 -15.84978,-13.35423 -16,-21.58643 -0.43748,-13.92928 11.03543,-22.36677 21.87393,-22.78166 10.38266,-0.22875 18.80548,5.50881 21.04408,14.33504 1.06971,4.2176 1.3167,8.92649 0.51866,9.88808 -0.55623,0.67021 -3.71612,0.85959 -14.34269,0.85959 -7.49611,0 -14.08485,0.17481 -14.64163,0.38847 -2.34256,0.89893 -0.87042,4.53909 2.95694,7.31161 3.12993,2.26731 6.71033,2.51749 9.71517,0.67886 1.54416,-0.94486 3.50349,-1.27058 8.66217,-1.44 7.34133,-0.2411 8.06305,0.12582 6.11011,3.10637 -5.92332,9.18299 -15.19681,11.15328 -25.89674,9.24007 z m 14.33153,-26.69773 c 0.65629,-1.71024 0.44519,-2.56448 -1.05153,-4.25534 -1.80358,-2.03752 -5.02626,-3.69231 -7.19073,-3.69231 -1.76079,0 -4.27258,1.35606 -6.47251,3.49438 -1.67882,1.63181 -2.4869,4.59362 -1.37566,5.04212 0.43939,0.17735 4.15209,0.34518 8.25043,0.37297 6.23535,0.0423 7.51493,-0.1147 7.84,-0.96182 z M 204.8,335.39776 c 0,-17.22722 0.216,-31.42127 0.48,-31.54233 0.264,-0.12105 3.216,-0.0661 6.56,0.12223 l 6.08,0.34233 0.32,10.24 0.32,10.24 1.6,-0.12405 c 0.88,-0.0682 3.04,-0.45961 4.8,-0.86974 18.24728,-0.726 26.93967,7.7716 26.7128,21.66111 0.10154,8.44141 -3.93823,15.60051 -11.49153,19.58199 -2.97551,1.48893 -4.08402,1.67069 -10.18961,1.67069 -5.47668,0 -7.08564,-0.21246 -8.02127,-1.0592 -1.08906,-0.98558 -1.25172,-0.98558 -2.34079,0 -0.93515,0.84631 -2.54311,1.0592 -8,1.0592 H 204.8 Z m 26.87516,20.38329 c 4.63474,-1.99381 5.77986,-6.44892 6.40484,-10.50106 0.35824,-2.32267 -0.49539,-4.81999 -1.68704,-6.8456 -0.85857,-1.45942 -2.08319,-3.02725 -3.72062,-3.4584 -4.5736,-1.20428 -11.90552,-1.08392 -13.80195,3.28924 -0.84837,2.23139 -0.80395,12.85458 0.0605,14.46984 4.03127,3.73466 8.19423,4.98089 12.74427,3.04596 z m 111.1515,10.51227 C 342.592,366.05866 342.4,359.30765 342.4,351.29109 c 0,-10.95764 -0.19858,-14.70408 -0.8,-15.09333 -0.44,-0.28477 -2.816,-0.66177 -5.28,-0.83777 l -4.48,-0.32 v -5.44 -5.44 l 3.84,-0.16474 c 6.84339,-0.29358 6.46951,0.091 6.94358,-7.14298 0.40398,-6.1645 0.74541,-7.57236 2.6405,-10.88778 1.12384,-1.96616 5.28004,-5.80323 6.29153,-5.80844 0.42041,-0.002 1.62838,-0.48901 2.68438,-1.08186 2.71021,-1.52153 12.59658,-1.48022 15.57188,0.0651 1.58452,0.82295 2.01612,1.38369 1.68103,2.18398 -0.24795,0.59221 -0.63129,2.804 -0.85187,4.91511 l -0.40104,3.83837 -4.62679,-0.21521 c -5.26656,-0.24496 -7.05305,0.6645 -9.20977,4.68849 -1.21407,2.26519 -1.60252,7.03112 -0.6901,8.46695 0.32549,0.51219 2.88469,0.83933 7.5102,0.96 l 7.01646,0.18303 0.18492,5.6 0.18492,5.6 h -6.46699 c -3.55685,0 -7.02406,0.29813 -7.70492,0.66251 -1.16991,0.62612 -1.23793,1.48767 -1.23793,15.68 v 15.01749 h -5.97333 c -3.28533,0 -6.16533,-0.192 -6.4,-0.42667 z m 58.07719,-0.16 c -0.14512,-0.14666 -0.26386,-13.61066 -0.26386,-29.92 v -29.65333 h 7.04 7.04 v 11.82781 c 0,11.73417 0.0114,11.83061 1.44,12.1823 0.792,0.19498 6.48,0.27246 12.64,0.17219 l 11.2,-0.1823 0.32,-11.84 0.32,-11.84 h 7.04 c 5.23947,0 7.02363,0.20461 6.976,0.8 -0.0352,0.44 -0.1072,13.76 -0.16,29.6 l -0.096,28.8 h -6.72 c -3.696,0 -6.7747,-0.072 -6.84155,-0.16 -0.0669,-0.088 -0.28286,-5.2 -0.48,-11.36 l -0.35845,-11.2 h -12.48 -12.48 l -0.32,11.2 -0.32,11.2 -6.61614,0.32 c -3.63888,0.176 -6.73488,0.2 -6.88,0.0533 z m -317.386814,-0.0899 c 0.04324,-3.59549 -0.04927,-14.33294 0.01597,-29.29294 0.07865,-18.03426 -0.04013,-29.3228 -0.01652,-30.03752 5.883134,-0.006 8.5737,-0.20957 15.065609,-0.21946 L 98.56,318.05727 c -0.02047,10.71219 0.04036,10.72514 0.398237,12.02742 1.921903,0.12913 23.852643,1.02225 25.082283,0.24249 0.6352,-0.40282 0.86969,-3.33156 0.96,-11.9902 L 125.12,306.87999 h 7.04 c 5.23947,0 7.02363,0.20461 6.976,0.8 -0.0352,0.44 -0.1072,13.76 -0.16,29.6 l -0.096,28.8 h -6.72 c -3.696,0 -6.7747,-0.072 -6.84156,-0.16 -0.0669,-0.088 -0.28285,-5.2 -0.48,-11.36 l -0.35844,-11.2 -12.07707,-0.17441 c -8.24696,-0.11909 -12.35226,0.054 -12.944819,0.54577 -0.652858,0.54182 -0.911143,3.3587 -1.042938,11.3744 l -0.175174,10.65424 -6.205306,0.18276 c -5.428429,0.15988 -5.331388,0.0991 -8.517657,0.10067 z M 330.96163,274.56528 c -8.83477,-2.4693 -16.59638,-8.08892 -23.90949,-13.62687 -7.82576,-5.92617 -14.69948,-13.12345 -20.97214,-20.67432 -4.58573,-6.51808 -9.47995,-12.97197 -11.81102,-20.5085 -2.13035,-6.88759 -4.86513,-15.09955 -1.67284,-21.5638 3.30311,-6.68865 10.4028,-11.90069 18.76887,-12.18879 3.65607,-0.0905 10.40762,1.59305 15.40685,3.17492 3.81577,1.2074 7.04078,4.29424 11.01312,4.7825 1.86302,0.22899 3.80576,-0.2435 5.55457,-0.92537 7.70233,-3.00317 12.665,-11.91199 20.7662,-13.55986 6.01812,-1.22415 12.65432,0.47691 18.13584,3.24625 5.2383,2.64646 7.79668,9.01049 12.78008,12.11036 0.86495,0.53803 1.84777,1.03008 2.86595,1.06058 7.59654,0.22753 14.28065,-5.64488 21.81791,-6.61901 8.79637,-1.13686 21.50066,0.32769 26.70859,8.02834 4.3743,6.46801 1.43824,16.62208 -2.09413,23.33113 -3.01042,6.98693 -7.38123,13.76549 -11.15408,18.72715 -8.76511,11.86406 -18.65253,19.64143 -29.78012,27.17666 -5.66872,3.83867 -11.79395,7.50796 -18.48705,8.94744 -11.06354,2.37943 -23.0383,2.12739 -33.93711,-0.91881 z m 25.34884,-10.04522 c 1.34753,-1.34579 1.97126,-3.4189 2.08317,-5.32007 0.22674,-3.85205 -1.21169,-7.74352 -2.92705,-11.2 -5.93736,-11.9639 -15.16082,-22.2128 -24.74659,-31.51335 -4.13797,-4.01485 -8.81673,-7.58394 -13.92,-10.26692 -7.64565,-4.0196 -16.03955,-10.2309 -24.4939,-8.45973 -4.26941,0.89443 -8.51496,4.65642 -9.61445,8.87767 -1.43686,5.51651 2.4578,11.32029 5.30835,16.25697 6.69947,11.60236 15.92539,22.1556 26.8542,29.90536 10.18673,7.22354 22.09864,14.25898 34.5858,14.40011 2.45807,0.0278 5.13112,-0.94293 6.87047,-2.68004 z m 38.99957,-21.57189 c 6.9697,-4.84648 12.90595,-14.11621 15.88238,-19.90818 1.95796,-3.82623 4.3869,-8.04994 4.79926,-11.72949 0.39584,-3.97156 0.91557,-8.95908 -1.85857,-11.82859 -1.89897,-1.96425 -5.33227,-1.83114 -8.04935,-1.54508 -10.76005,1.13285 -20.79096,6.79005 -29.90342,12.62316 -7.24192,4.63573 -13.10859,10.85076 -19.06035,17.38165 -0.34843,0.38233 0.80779,1.5948 1.2707,2.35844 4.23199,6.98119 8.1354,15.57736 13.74243,20.2723 7.36908,6.17036 16.49967,-2.98109 23.17692,-7.62421 z m -40.62149,-29.35632 c 4.01344,-1.50795 8.65826,-4.23032 9.76382,-8.3727 0.74068,-2.77523 -1.17686,-5.80723 -2.87638,-8.12286 -1.60439,-2.18601 -3.92413,-4.04627 -6.50123,-4.88963 -4.21845,-1.38049 -9.22404,-1.5585 -13.31476,0.16403 -4.30078,1.81099 -10.05092,5.2288 -9.90532,9.89305 0.17974,5.75799 7.5668,9.41759 12.96599,11.42647 3.08297,1.14708 6.7886,1.0586 9.86788,-0.0984 z" />
    </g>
  </g>
</svg>
