<?xml version="1.0" encoding="UTF-8" standalone="no"?>
<svg width="109.008mm" height="29.1042mm"
 xmlns="http://www.w3.org/2000/svg" xmlns:xlink="http://www.w3.org/1999/xlink"  version="1.2" baseProfile="tiny">
<desc>Created by EvoPdf</desc>
<defs>
</defs>
<g fill="none" stroke="black" stroke-width="1" fill-rule="evenodd" stroke-linecap="square" stroke-linejoin="bevel" >

<g fill="#000000" fill-opacity="1" stroke="#000000" stroke-opacity="1" stroke-width="1" stroke-linecap="square" stroke-linejoin="miter" stroke-miterlimit="2" transform="matrix(1,0,0,1,0,0)"
>
</g>

<g fill="#000000" fill-opacity="1" stroke="#000000" stroke-opacity="1" stroke-width="1" stroke-linecap="square" stroke-linejoin="miter" stroke-miterlimit="2" transform="matrix(1,0,0,1,0,0)"
>
</g>

<g fill="#000000" fill-opacity="1" stroke="#000000" stroke-opacity="1" stroke-width="1" stroke-linecap="square" stroke-linejoin="miter" stroke-miterlimit="2" transform="matrix(1,0,0,1,0,0)"
>
</g>

<g fill="#000000" fill-opacity="1" stroke="#000000" stroke-opacity="1" stroke-width="1" stroke-linecap="square" stroke-linejoin="miter" stroke-miterlimit="2" transform="matrix(1,0,0,1,0,0)"
>
</g>

<g fill="#000000" fill-opacity="1" stroke="#000000" stroke-opacity="1" stroke-width="1" stroke-linecap="square" stroke-linejoin="miter" stroke-miterlimit="2" transform="matrix(1.86178,0,0,1.86178,8,10.2186)"
>
</g>

<g fill="#8bbe29" fill-opacity="1" stroke="none" transform="matrix(1.86178,0,0,1.86178,8,10.2186)"
>
<path vector-effect="none" fill-rule="nonzero" d="M20.4,0 L20.4,8.8 C20.4,9.8 19.6,10.5 18.7,10.5 C17.7,10.5 17,9.7 17,8.8 L17,0 L0,0 L0,56.7 L192.3,56.7 L192.3,47.9 C192.3,46.9 193.1,46.2 194,46.2 C195,46.2 195.7,47 195.7,47.9 L195.7,56.7 L212.7,56.7 L212.7,0 L20.4,0"/>
</g>

<g fill="#000000" fill-opacity="1" stroke="#000000" stroke-opacity="1" stroke-width="1" stroke-linecap="square" stroke-linejoin="miter" stroke-miterlimit="2" transform="matrix(1.86178,0,0,1.86178,8,10.2186)"
>
</g>

<g fill="#ffffff" fill-opacity="1" stroke="none" transform="matrix(1.86178,0,0,1.86178,8,10.2186)"
>
<path vector-effect="none" fill-rule="nonzero" d="M111.4,30.1 C113,29.6 113.8,28.6 114.4,27.6 C115,26.6 115.3,25.5 115.3,24.2 C115.3,22.1 114.6,20.4 113.2,19.2 C111.8,18 109.8,17.4 107.4,17.4 L101.1,17.4 C100.1,17.4 99.4,18.1 99.4,19.1 L99.4,39 L104,39 L104,31.3 L106.5,31.3 C106.7,31.3 107,31.3 107.3,31.3 L112,39 L117.1,39 L111.4,30.1 M110.7,24.3 C110.7,26.5 109.3,27.5 106.5,27.5 L103.9,27.5 L103.9,21 L106.5,21 C109.3,21.1 110.7,22.1 110.7,24.3 "/>
</g>

<g fill="#000000" fill-opacity="1" stroke="#000000" stroke-opacity="1" stroke-width="1" stroke-linecap="square" stroke-linejoin="miter" stroke-miterlimit="2" transform="matrix(1.86178,0,0,1.86178,8,10.2186)"
>
</g>

<g fill="#ffffff" fill-opacity="1" stroke="none" transform="matrix(1.86178,0,0,1.86178,8,10.2186)"
>
<path vector-effect="none" fill-rule="nonzero" d="M120.9,17.4 C119.9,17.4 119.2,18.1 119.2,19.1 L119.2,39 L123.8,39 L123.8,17.4 L120.9,17.4"/>
</g>

<g fill="#000000" fill-opacity="1" stroke="#000000" stroke-opacity="1" stroke-width="1" stroke-linecap="square" stroke-linejoin="miter" stroke-miterlimit="2" transform="matrix(1.86178,0,0,1.86178,8,10.2186)"
>
</g>

<g fill="#ffffff" fill-opacity="1" stroke="none" transform="matrix(1.86178,0,0,1.86178,8,10.2186)"
>
<path vector-effect="none" fill-rule="nonzero" d="M168.5,17.4 L166,17.4 C165,17.4 164.3,18.1 164.3,19.1 L164.3,39 L168.7,39 L168.7,24.8 L179.6,39 L183.6,39 L183.6,17.4 L179.2,17.4 L179.2,31.4 L168.5,17.4"/>
</g>

<g fill="#000000" fill-opacity="1" stroke="#000000" stroke-opacity="1" stroke-width="1" stroke-linecap="square" stroke-linejoin="miter" stroke-miterlimit="2" transform="matrix(1.86178,0,0,1.86178,8,10.2186)"
>
</g>

<g fill="#ffffff" fill-opacity="1" stroke="none" transform="matrix(1.86178,0,0,1.86178,8,10.2186)"
>
<path vector-effect="none" fill-rule="nonzero" d="M143.9,17.4 L127.7,17.4 C126.7,17.4 126,18.1 126,19.1 L126,21.2 L132.6,21.2 L132.6,39 L137.2,39 L137.2,21.2 L143.9,21.2 L143.9,17.4"/>
</g>

<g fill="#000000" fill-opacity="1" stroke="#000000" stroke-opacity="1" stroke-width="1" stroke-linecap="square" stroke-linejoin="miter" stroke-miterlimit="2" transform="matrix(1.86178,0,0,1.86178,8,10.2186)"
>
</g>

<g fill="#ffffff" fill-opacity="1" stroke="none" transform="matrix(1.86178,0,0,1.86178,8,10.2186)"
>
<path vector-effect="none" fill-rule="nonzero" d="M44.1,39 L49,39 L40.5,17.5 L40.5,17.4 L35.8,17.4 L27.3,38.8 L27.1,39 L31.7,39 L33.6,33.7 L42.1,33.7 L44.1,39 M35.1,29.9 L37.9,22.2 L40.7,29.9 C40.7,29.9 35.1,29.9 35.1,29.9 "/>
</g>

<g fill="#000000" fill-opacity="1" stroke="#000000" stroke-opacity="1" stroke-width="1" stroke-linecap="square" stroke-linejoin="miter" stroke-miterlimit="2" transform="matrix(1.86178,0,0,1.86178,8,10.2186)"
>
</g>

<g fill="#ffffff" fill-opacity="1" stroke="none" transform="matrix(1.86178,0,0,1.86178,8,10.2186)"
>
<path vector-effect="none" fill-rule="nonzero" d="M92.4,39 L97.3,39 L88.8,17.5 L88.8,17.4 L84,17.4 L75.4,39 L80,39 L81.9,33.7 L90.4,33.7 L92.4,39 M83.4,29.9 L86.2,22.2 L89,29.9 C89,29.9 83.4,29.9 83.4,29.9 "/>
</g>

<g fill="#000000" fill-opacity="1" stroke="#000000" stroke-opacity="1" stroke-width="1" stroke-linecap="square" stroke-linejoin="miter" stroke-miterlimit="2" transform="matrix(1.86178,0,0,1.86178,8,10.2186)"
>
</g>

<g fill="#ffffff" fill-opacity="1" stroke="none" transform="matrix(1.86178,0,0,1.86178,8,10.2186)"
>
<path vector-effect="none" fill-rule="nonzero" d="M157.4,39 L162.3,39 L153.8,17.5 L153.8,17.4 L149,17.4 L140.5,38.8 L140.4,39 L145,39 L146.9,33.7 L155.4,33.7 L157.4,39 M148.4,29.9 L151.2,22.2 L154,29.9 C154,29.9 148.4,29.9 148.4,29.9 "/>
</g>

<g fill="#000000" fill-opacity="1" stroke="#000000" stroke-opacity="1" stroke-width="1" stroke-linecap="square" stroke-linejoin="miter" stroke-miterlimit="2" transform="matrix(1.86178,0,0,1.86178,8,10.2186)"
>
</g>

<g fill="#ffffff" fill-opacity="1" stroke="none" transform="matrix(1.86178,0,0,1.86178,8,10.2186)"
>
<path vector-effect="none" fill-rule="nonzero" d="M60.3,32.6 C60.7,33.2 61.3,33.8 62.1,33.8 C62.9,33.8 63.5,33.3 63.9,32.6 L69.2,24.6 L69.2,39 L73.6,39 L73.6,17.4 L69.1,17.4 L62.2,27.8 L55.3,17.4 L52.3,17.4 C51.3,17.4 50.6,18.1 50.6,19.1 L50.6,39 L54.9,39 L54.9,24.7 L60.3,32.6"/>
</g>

<g fill="#000000" fill-opacity="1" stroke="#000000" stroke-opacity="1" stroke-width="1" stroke-linecap="square" stroke-linejoin="miter" stroke-miterlimit="2" transform="matrix(1.86178,0,0,1.86178,8,10.2186)"
>
</g>

<g fill="#ffffff" fill-opacity="1" stroke="none" transform="matrix(1.86178,0,0,1.86178,8,10.2186)"
>
<path vector-effect="none" fill-rule="nonzero" d="M10.6,37.6 C12.7,39.2 15.6,39.8 18.2,39.8 C20.8,39.8 22.8,39.2 24.3,38 C25.8,36.8 26.6,35.2 26.7,33.1 C26.8,31.4 26.3,29.8 24.8,28.5 C23.8,27.7 22.4,27.1 20.5,26.4 C19.7,26.1 17.8,25.5 17.2,25.2 C16.7,24.9 15.8,24.2 15.8,23.2 C15.8,21.8 17.1,20.8 19.3,20.8 C21.4,20.8 23.4,21.4 25,22.6 L25.6,21.1 C25.9,20.2 26.1,19.4 25.9,18.8 C25.5,18 24,17.5 22.8,17.2 C21.6,16.9 20.6,16.8 19.2,16.8 C17.6,16.8 16.2,17.1 15,17.6 C13.8,18.1 12.9,18.9 12.2,19.8 C11.6,20.8 11.2,21.9 11.2,23.1 C11.2,24.8 11.7,26.2 12.7,27.3 C13.7,28.3 15.2,29 17.8,30 C19.1,30.5 20.6,31 21.1,31.5 C21.7,31.9 22,32.5 22,33.2 C22,34.8 20.5,35.8 18,35.8 C15.5,35.8 13.4,34.8 12,33.6 L10.6,37.6"/>
</g>

<g fill="#000000" fill-opacity="1" stroke="#000000" stroke-opacity="1" stroke-width="1" stroke-linecap="square" stroke-linejoin="miter" stroke-miterlimit="2" transform="matrix(1.86178,0,0,1.86178,8,10.2186)"
>
</g>

<g fill="#ffffff" fill-opacity="1" stroke="none" transform="matrix(1.86178,0,0,1.86178,8,10.2186)"
>
<path vector-effect="none" fill-rule="nonzero" d="M186,37.6 C188.1,39.2 191,39.8 193.6,39.8 C196.2,39.8 198.2,39.2 199.7,38 C201.2,36.8 202,35.2 202.1,33.1 C202.2,31.4 201.7,29.8 200.2,28.5 C199.2,27.7 197.8,27.1 195.9,26.4 C195.1,26.1 193.2,25.5 192.6,25.2 C192.1,24.9 191.2,24.2 191.2,23.2 C191.2,21.8 192.5,20.8 194.7,20.8 C196.8,20.8 198.8,21.4 200.4,22.6 L201,21.1 C201.3,20.2 201.5,19.4 201.3,18.8 C200.9,18 199.4,17.5 198.2,17.2 C197,16.9 196,16.8 194.6,16.8 C193,16.8 191.6,17.1 190.4,17.6 C189.2,18.1 188.3,18.9 187.6,19.8 C187,20.8 186.6,21.9 186.6,23.1 C186.6,24.8 187.1,26.2 188.1,27.3 C189.1,28.3 190.6,29 193.2,30 C194.5,30.5 196,31 196.5,31.5 C197.1,31.9 197.4,32.5 197.4,33.2 C197.4,34.8 195.8,35.8 193.4,35.8 C190.9,35.8 188.8,34.8 187.4,33.6 L186,37.6"/>
</g>

<g fill="#000000" fill-opacity="1" stroke="#000000" stroke-opacity="1" stroke-width="1" stroke-linecap="square" stroke-linejoin="miter" stroke-miterlimit="2" transform="matrix(1.86178,0,0,1.86178,8,10.2186)"
>
</g>

<g fill="#000000" fill-opacity="1" stroke="#000000" stroke-opacity="1" stroke-width="1" stroke-linecap="square" stroke-linejoin="miter" stroke-miterlimit="2" transform="matrix(1.86178,0,0,1.86178,8,10.2186)"
>
</g>

<g fill="#000000" fill-opacity="1" stroke="#000000" stroke-opacity="1" stroke-width="1" stroke-linecap="square" stroke-linejoin="miter" stroke-miterlimit="2" transform="matrix(1,0,0,1,0,0)"
>
</g>

<g fill="#000000" fill-opacity="1" stroke="#000000" stroke-opacity="1" stroke-width="1" stroke-linecap="square" stroke-linejoin="miter" stroke-miterlimit="2" transform="matrix(1,0,0,1,0,0)"
>
</g>

<g fill="#000000" fill-opacity="1" stroke="#000000" stroke-opacity="1" stroke-width="1" stroke-linecap="square" stroke-linejoin="miter" stroke-miterlimit="2" transform="matrix(1,0,0,1,0,0)"
>
</g>

<g fill="#000000" fill-opacity="1" stroke="#000000" stroke-opacity="1" stroke-width="1" stroke-linecap="square" stroke-linejoin="miter" stroke-miterlimit="2" transform="matrix(1,0,0,1,0,0)"
>
</g>

<g fill="#000000" fill-opacity="1" stroke="#000000" stroke-opacity="1" stroke-width="1" stroke-linecap="square" stroke-linejoin="miter" stroke-miterlimit="2" transform="matrix(1.86178,0,0,1.86178,8,10.2186)"
>
</g>

<g fill="#000000" fill-opacity="1" stroke="#000000" stroke-opacity="1" stroke-width="1" stroke-linecap="square" stroke-linejoin="miter" stroke-miterlimit="2" transform="matrix(1,0,0,1,0,0)"
>
</g>

<g fill="#000000" fill-opacity="1" stroke="#000000" stroke-opacity="1" stroke-width="1" stroke-linecap="square" stroke-linejoin="miter" stroke-miterlimit="2" transform="matrix(1,0,0,1,0,0)"
>
</g>

<g fill="#000000" fill-opacity="1" stroke="#000000" stroke-opacity="1" stroke-width="1" stroke-linecap="square" stroke-linejoin="miter" stroke-miterlimit="2" transform="matrix(1,0,0,1,0,0)"
>
</g>

<g fill="#000000" fill-opacity="1" stroke="#000000" stroke-opacity="1" stroke-width="1" stroke-linecap="square" stroke-linejoin="miter" stroke-miterlimit="2" transform="matrix(1,0,0,1,0,0)"
>
</g>

<g fill="#000000" fill-opacity="1" stroke="#000000" stroke-opacity="1" stroke-width="1" stroke-linecap="square" stroke-linejoin="miter" stroke-miterlimit="2" transform="matrix(1,0,0,1,0,0)"
>
</g>

<g fill="#000000" fill-opacity="1" stroke="#000000" stroke-opacity="1" stroke-width="1" stroke-linecap="square" stroke-linejoin="miter" stroke-miterlimit="2" transform="matrix(1,0,0,1,0,0)"
>
</g>
</g>
</svg>
